# xmcd
#
# Track frame offsets:
#	150
#	7997
#	17068
#	26707
#	39299
#	50639
#	69089
#	83209
#	95399
#	107094
#	123100
#	138747
#	148296
#	169764
#	184770
#	198691
#
# Disc length: 2838 seconds
# Revision: 0
# Processed by: cddbd v1.5.2PL0 Copyright (c) Steve Scherf et al.
# Submitted via: dBpowerAMP V12.0
#
DISCID=d90b1410
DTITLE=Steff Tej and Ejectes - To the roots
DYEAR=2010
DGENRE=Chanson
TTITLE0=Jalmince
TTITLE1=You're Gonna LoseThat Girl
TTITLE2=Les Ramones and Les Heptones
TTITLE3=Alexandra
TTITLE4=Raggacronymes
TTITLE5=Elysée Moi
TTITLE6=Punk Rocker
TTITLE7=Pressure Drop
TTITLE8=Je Cours
TTITLE9=Odile
TTITLE10=Marche Au  Pas
TTITLE11=Vacances A La Mer
TTITLE12=Jackpot
TTITLE13=Guns Of Brixton
TTITLE14=Songe d'Une Nuit d'Eté
TTITLE15=Johnny Too Bad
EXTD=
EXTT0=
EXTT1=
EXTT2=
EXTT3=
EXTT4=
EXTT5=
EXTT6=
EXTT7=
EXTT8=
EXTT9=
EXTT10=
EXTT11=
EXTT12=
EXTT13=
EXTT14=
EXTT15=
PLAYORDER=
